<svg width="25" height="24" viewBox="0 0 25 24" fill="none" xmlns="http://www.w3.org/2000/svg">
<mask id="path-1-inside-1_416_2794" fill="white">
<path fill-rule="evenodd" clip-rule="evenodd" d="M6.5 1C5.39543 1 4.5 1.89543 4.5 3V18.8333V19V22.9999L12.5 19.4285L20.5 22.9999V19V18.8333V3C20.5 1.89543 19.6046 1 18.5 1H6.5Z"/>
</mask>
<path d="M4.5 22.9999H3.5V24.5415L4.90765 23.9131L4.5 22.9999ZM12.5 19.4285L12.9077 18.5154L12.5 18.3334L12.0923 18.5154L12.5 19.4285ZM20.5 22.9999L20.0923 23.9131L21.5 24.5415V22.9999H20.5ZM5.5 3C5.5 2.44772 5.94772 2 6.5 2V0C4.84315 0 3.5 1.34315 3.5 3H5.5ZM5.5 18.8333V3H3.5V18.8333H5.5ZM5.5 19V18.8333H3.5V19H5.5ZM5.5 22.9999V19H3.5V22.9999H5.5ZM12.0923 18.5154L4.09235 22.0868L4.90765 23.9131L12.9077 20.3416L12.0923 18.5154ZM20.9076 22.0868L12.9077 18.5154L12.0923 20.3416L20.0923 23.9131L20.9076 22.0868ZM19.5 19V22.9999H21.5V19H19.5ZM19.5 18.8333V19H21.5V18.8333H19.5ZM19.5 3V18.8333H21.5V3H19.5ZM18.5 2C19.0523 2 19.5 2.44772 19.5 3H21.5C21.5 1.34315 20.1569 0 18.5 0V2ZM6.5 2H18.5V0H6.5V2Z" fill="#818994" mask="url(#path-1-inside-1_416_2794)"/>
</svg>
