<svg width="16" height="16" viewBox="0 0 16 16" fill="none" xmlns="http://www.w3.org/2000/svg">
<g id="icon / reply16">
<g id="icon / reply16_2">
<mask id="path-1-inside-1_505_5012" fill="white">
<path fill-rule="evenodd" clip-rule="evenodd" d="M4 2C2.89543 2 2 2.89543 2 4V9.6C2 9.62693 2.00053 9.65373 2.00159 9.6804L2 9.67997V14L4.49997 11.6H12C13.1046 11.6 14 10.7046 14 9.6V4C14 2.89543 13.1046 2 12 2H4Z"/>
</mask>
<path d="M2.00159 9.6804L1.73698 10.6448L3.05479 11.0064L3.00081 9.6409L2.00159 9.6804ZM2 9.67997L2.26461 8.71561L1 8.36862V9.67997H2ZM2 14H1V16.3462L2.69253 14.7214L2 14ZM4.49997 11.6V10.6H4.09766L3.80743 10.8786L4.49997 11.6ZM3 4C3 3.44771 3.44771 3 4 3V1C2.34315 1 1 2.34314 1 4H3ZM3 9.6V4H1V9.6H3ZM3.00081 9.6409C3.00027 9.62738 3 9.61375 3 9.6H1C1 9.6401 1.00079 9.68008 1.00237 9.71991L3.00081 9.6409ZM1.73539 10.6443L1.73698 10.6448L2.2662 8.71605L2.26461 8.71561L1.73539 10.6443ZM3 14V9.67997H1V14H3ZM3.80743 10.8786L1.30747 13.2786L2.69253 14.7214L5.1925 12.3214L3.80743 10.8786ZM12 10.6H4.49997V12.6H12V10.6ZM13 9.6C13 10.1523 12.5523 10.6 12 10.6V12.6C13.6569 12.6 15 11.2569 15 9.6H13ZM13 4V9.6H15V4H13ZM12 3C12.5523 3 13 3.44772 13 4H15C15 2.34315 13.6569 1 12 1V3ZM4 3H12V1H4V3Z" fill="#D9D9D9" mask="url(#path-1-inside-1_505_5012)"/>
</g>
</g>
</svg>
