<svg width="16" height="16" viewBox="0 0 16 16" fill="none" xmlns="http://www.w3.org/2000/svg">
<path d="M14.4625 13.6016L10.4047 9.54375C11.0344 8.72969 11.375 7.73438 11.375 6.6875C11.375 5.43438 10.8859 4.25937 10.0016 3.37344C9.11719 2.4875 7.93906 2 6.6875 2C5.43594 2 4.25781 2.48906 3.37344 3.37344C2.4875 4.25781 2 5.43438 2 6.6875C2 7.93906 2.48906 9.11719 3.37344 10.0016C4.25781 10.8875 5.43438 11.375 6.6875 11.375C7.73438 11.375 8.72813 11.0344 9.54219 10.4062L13.6 14.4625C13.6119 14.4744 13.626 14.4838 13.6416 14.4903C13.6571 14.4967 13.6738 14.5001 13.6906 14.5001C13.7075 14.5001 13.7241 14.4967 13.7397 14.4903C13.7552 14.4838 13.7694 14.4744 13.7812 14.4625L14.4625 13.7828C14.4744 13.7709 14.4838 13.7568 14.4903 13.7412C14.4967 13.7257 14.5001 13.709 14.5001 13.6922C14.5001 13.6754 14.4967 13.6587 14.4903 13.6431C14.4838 13.6276 14.4744 13.6135 14.4625 13.6016ZM9.1625 9.1625C8.5 9.82344 7.62187 10.1875 6.6875 10.1875C5.75312 10.1875 4.875 9.82344 4.2125 9.1625C3.55156 8.5 3.1875 7.62187 3.1875 6.6875C3.1875 5.75312 3.55156 4.87344 4.2125 4.2125C4.875 3.55156 5.75312 3.1875 6.6875 3.1875C7.62187 3.1875 8.50156 3.55 9.1625 4.2125C9.82344 4.875 10.1875 5.75312 10.1875 6.6875C10.1875 7.62187 9.82344 8.50156 9.1625 9.1625Z" fill="white"/>
</svg>
